<svg viewBox="0 0 64 64" width="256" height="256" xmlns="http://www.w3.org/2000/svg">
  <defs>
    <clipPath id="l"><rect x="0" y="0" width="32" height="64"/></clipPath>
    <clipPath id="r"><rect x="32" y="0" width="32" height="64"/></clipPath>
  </defs>
  <path d="
    M32 6
    C33 6 36 13 37.5 16.5
    C40 15.5 46 14.5 49 14
    C47 17 44.5 21 43.5 24
    C48 24.5 54 25.5 57 26.5
    C53 28.5 48.5 31 47.5 32.5
    C49.5 37 51.5 43 52 45.5
    C47.5 43.5 41 41 39 40.5
    C38 45 37 52 36.5 57
    C34.5 54.5 33 52.5 32 52
    C31 52.5 29.5 54.5 27.5 57
    C27 52 26 45 25 40.5
    C23 41 16.5 43.5 12 45.5
    C12.5 43 14.5 37 16.5 32.5
    C15.5 31 11 28.5 7 26.5
    C10 25.5 16 24.5 20.5 24
    C19.5 21 17 17 15 14
    C18 14.5 24 15.5 26.5 16.5
    C28 13 31 6 32 6 Z
  " fill="#CC2936" clip-path="url(#l)"/>
  <path d="
    M32 6
    C33 6 36 13 37.5 16.5
    C40 15.5 46 14.5 49 14
    C47 17 44.5 21 43.5 24
    C48 24.5 54 25.5 57 26.5
    C53 28.5 48.5 31 47.5 32.5
    C49.5 37 51.5 43 52 45.5
    C47.5 43.5 41 41 39 40.5
    C38 45 37 52 36.5 57
    C34.5 54.5 33 52.5 32 52
    C31 52.5 29.5 54.5 27.5 57
    C27 52 26 45 25 40.5
    C23 41 16.5 43.5 12 45.5
    C12.5 43 14.5 37 16.5 32.5
    C15.5 31 11 28.5 7 26.5
    C10 25.5 16 24.5 20.5 24
    C19.5 21 17 17 15 14
    C18 14.5 24 15.5 26.5 16.5
    C28 13 31 6 32 6 Z
  " fill="#4a7fd4" clip-path="url(#r)"/>
</svg>
